<svg width="28" height="30" viewBox="0 0 28 30" fill="none" xmlns="http://www.w3.org/2000/svg">
<path d="M20.4616 28C23.5204 28 26 25.7135 26 22.8929C26 20.0722 23.5204 17.7857 20.4616 17.7857C17.4027 17.7857 14.9231 20.0722 14.9231 22.8929C14.9231 25.7135 17.4027 28 20.4616 28Z" stroke="black" stroke-width="2.5" stroke-linecap="round" stroke-linejoin="round"/>
<path d="M18.3823 9.3348C20.3959 9.3348 22.028 7.69284 22.028 5.6674C22.028 3.64196 20.3959 2 18.3823 2C16.3688 2 14.7366 3.64196 14.7366 5.6674C14.7366 7.69284 16.3688 9.3348 18.3823 9.3348Z" stroke="black" stroke-width="2.5" stroke-linecap="round" stroke-linejoin="round"/>
<path d="M4.76923 16.8572C6.29863 16.8572 7.53847 15.61 7.53847 14.0714C7.53847 12.5329 6.29863 11.2857 4.76923 11.2857C3.23983 11.2857 2 12.5329 2 14.0714C2 15.61 3.23983 16.8572 4.76923 16.8572Z" stroke="black" stroke-width="2.5" stroke-linecap="round" stroke-linejoin="round"/>
<path d="M15.3443 7.50111L6.83763 12.391" stroke="black" stroke-width="2.5"/>
<path d="M6.83763 16.0583L15.3443 20.9482" stroke="black" stroke-width="2.5"/>
</svg>
