<svg width="300" height="95" viewBox="0 0 300 95" fill="none" xmlns="http://www.w3.org/2000/svg">
<rect width="297" height="95" transform="translate(3)" fill="#121214"/>
<path d="M246.388 56.0126L249.235 62.4701C249.235 62.4701 262.045 65.3373 262.045 72.1567C262.045 77 256.351 77 256.351 77H241.169L233.697 72.625" stroke="white" stroke-width="2.17989" stroke-linecap="round" stroke-linejoin="round"/>
<path d="M229.309 56.0126L226.462 62.4701C226.462 62.4701 213.652 65.3373 213.652 72.1567C213.652 77 219.345 77 219.345 77H226.225L233.697 72.625L242.83 66.5" stroke="white" stroke-width="2.17989" stroke-linecap="round" stroke-linejoin="round"/>
<path d="M207.958 59.2413C207.958 59.2413 215.075 57.6271 219.345 56.0126C223.615 33.4108 236.425 35.0252 237.848 35.0252C239.272 35.0252 252.081 33.4108 256.351 56.0126C260.621 57.6271 267.738 59.2413 267.738 59.2413" stroke="white" stroke-width="2.17989" stroke-linecap="round" stroke-linejoin="round"/>
<path d="M237.848 28C241.517 28 244.49 24.866 244.49 21C244.49 17.134 241.517 14 237.848 14C234.18 14 231.206 17.134 231.206 21C231.206 24.866 234.18 28 237.848 28Z" stroke="white" stroke-width="2.17989" stroke-linecap="round" stroke-linejoin="round"/>
<path d="M17.3941 77.224C17.0101 77.224 16.7115 77.1173 16.4981 76.904C16.2848 76.6693 16.1781 76.3493 16.1781 75.944V55.496C16.1781 55.0693 16.2848 54.7493 16.4981 54.536C16.7115 54.3227 17.0101 54.216 17.3941 54.216C17.7355 54.216 18.0021 54.2907 18.1941 54.44C18.4075 54.568 18.5995 54.792 18.7701 55.112L27.5381 71.624H26.5781L35.3141 55.112C35.4848 54.792 35.6661 54.568 35.8581 54.44C36.0501 54.2907 36.3275 54.216 36.6901 54.216C37.0528 54.216 37.3408 54.3227 37.5541 54.536C37.7675 54.7493 37.8741 55.0693 37.8741 55.496V75.944C37.8741 76.3493 37.7675 76.6693 37.5541 76.904C37.3621 77.1173 37.0635 77.224 36.6581 77.224C36.2741 77.224 35.9755 77.1173 35.7621 76.904C35.5488 76.6693 35.4421 76.3493 35.4421 75.944V57.96H36.2101L28.2101 72.968C28.0608 73.2453 27.9008 73.448 27.7301 73.576C27.5808 73.6827 27.3568 73.736 27.0581 73.736C26.7595 73.736 26.5248 73.672 26.3541 73.544C26.1835 73.416 26.0341 73.224 25.9061 72.968L17.8101 57.928H18.5781V75.944C18.5781 76.3493 18.4715 76.6693 18.2581 76.904C18.0661 77.1173 17.7781 77.224 17.3941 77.224ZM46.5931 82.984C46.2731 82.984 46.0171 82.8987 45.8251 82.728C45.6331 82.5573 45.5158 82.3227 45.4731 82.024C45.4518 81.7467 45.5051 81.4587 45.6331 81.16L47.8411 76.2V77.32L41.6971 63.048C41.5691 62.728 41.5265 62.4293 41.5691 62.152C41.6118 61.8747 41.7398 61.6507 41.9531 61.48C42.1665 61.3093 42.4651 61.224 42.8491 61.224C43.1905 61.224 43.4571 61.2987 43.6491 61.448C43.8411 61.5973 44.0118 61.864 44.1611 62.248L49.4091 75.112H48.5451L53.8571 62.248C54.0278 61.864 54.2091 61.5973 54.4011 61.448C54.5931 61.2987 54.8705 61.224 55.2331 61.224C55.5745 61.224 55.8305 61.3093 56.0011 61.48C56.1931 61.6507 56.2998 61.8747 56.3211 62.152C56.3638 62.408 56.3211 62.696 56.1931 63.016L48.0011 81.96C47.8305 82.344 47.6385 82.6107 47.4251 82.76C47.2331 82.9093 46.9558 82.984 46.5931 82.984ZM75.0246 77.224C74.6193 77.224 74.2993 77.1067 74.0646 76.872C73.83 76.616 73.7126 76.2747 73.7126 75.848V56.712H66.5126C66.1286 56.712 65.83 56.6053 65.6166 56.392C65.4033 56.1787 65.2966 55.9013 65.2966 55.56C65.2966 55.1973 65.4033 54.92 65.6166 54.728C65.83 54.536 66.1286 54.44 66.5126 54.44H83.5686C83.9526 54.44 84.2513 54.536 84.4646 54.728C84.678 54.92 84.7846 55.1973 84.7846 55.56C84.7846 55.9227 84.678 56.2107 84.4646 56.424C84.2513 56.616 83.9526 56.712 83.5686 56.712H76.3686V75.848C76.3686 76.2747 76.2513 76.616 76.0166 76.872C75.8033 77.1067 75.4726 77.224 75.0246 77.224ZM91.6451 77.288C90.0025 77.288 88.5838 76.968 87.3891 76.328C86.2158 75.6667 85.2985 74.7387 84.6371 73.544C83.9971 72.3493 83.6771 70.92 83.6771 69.256C83.6771 67.6347 83.9971 66.2267 84.6371 65.032C85.2771 63.816 86.1518 62.8667 87.2611 62.184C88.3918 61.5013 89.6931 61.16 91.1651 61.16C92.2105 61.16 93.1491 61.3413 93.9811 61.704C94.8131 62.0453 95.5171 62.5467 96.0931 63.208C96.6905 63.8693 97.1385 64.6693 97.4371 65.608C97.7571 66.5467 97.9171 67.6027 97.9171 68.776C97.9171 69.1173 97.8211 69.3733 97.6291 69.544C97.4371 69.6933 97.1598 69.768 96.7971 69.768H85.6611V68.072H96.1891L95.6771 68.488C95.6771 67.336 95.5065 66.3653 95.1651 65.576C94.8238 64.7653 94.3225 64.1467 93.6611 63.72C93.0211 63.2933 92.2105 63.08 91.2291 63.08C90.1411 63.08 89.2131 63.336 88.4451 63.848C87.6985 64.3387 87.1331 65.032 86.7491 65.928C86.3651 66.8027 86.1731 67.8267 86.1731 69V69.192C86.1731 71.1547 86.6425 72.648 87.5811 73.672C88.5411 74.696 89.8958 75.208 91.6451 75.208C92.3705 75.208 93.0851 75.112 93.7891 74.92C94.5145 74.728 95.2185 74.408 95.9011 73.96C96.1998 73.768 96.4665 73.6827 96.7011 73.704C96.9571 73.704 97.1598 73.7787 97.3091 73.928C97.4585 74.056 97.5545 74.2267 97.5971 74.44C97.6611 74.632 97.6398 74.8453 97.5331 75.08C97.4478 75.3147 97.2665 75.5173 96.9891 75.688C96.2851 76.2 95.4531 76.5947 94.4931 76.872C93.5331 77.1493 92.5838 77.288 91.6451 77.288ZM108.26 77.288C106.703 77.288 105.359 76.9467 104.228 76.264C103.098 75.5813 102.223 74.632 101.604 73.416C101.007 72.1787 100.708 70.7493 100.708 69.128C100.708 67.8907 100.879 66.7813 101.22 65.8C101.562 64.8187 102.063 63.9867 102.724 63.304C103.386 62.6 104.175 62.0667 105.092 61.704C106.031 61.3413 107.087 61.16 108.26 61.16C109.028 61.16 109.828 61.2773 110.66 61.512C111.492 61.7467 112.25 62.152 112.932 62.728C113.146 62.8773 113.284 63.0587 113.348 63.272C113.412 63.4853 113.412 63.6987 113.348 63.912C113.284 64.104 113.178 64.2747 113.028 64.424C112.879 64.552 112.687 64.6267 112.452 64.648C112.239 64.6693 112.015 64.5947 111.78 64.424C111.226 63.9973 110.66 63.6987 110.084 63.528C109.508 63.3573 108.954 63.272 108.42 63.272C107.588 63.272 106.863 63.4107 106.244 63.688C105.626 63.944 105.103 64.3173 104.676 64.808C104.25 65.2987 103.919 65.9067 103.684 66.632C103.471 67.3573 103.364 68.2 103.364 69.16C103.364 71.016 103.802 72.488 104.676 73.576C105.551 74.6427 106.799 75.176 108.42 75.176C108.954 75.176 109.498 75.0907 110.052 74.92C110.628 74.7493 111.204 74.4507 111.78 74.024C112.015 73.8533 112.239 73.7787 112.452 73.8C112.666 73.8213 112.847 73.9067 112.996 74.056C113.146 74.184 113.242 74.3547 113.284 74.568C113.348 74.7813 113.348 74.9947 113.284 75.208C113.22 75.4 113.082 75.5707 112.868 75.72C112.186 76.2747 111.439 76.68 110.628 76.936C109.818 77.1707 109.028 77.288 108.26 77.288ZM117.761 77.224C117.334 77.224 117.014 77.1067 116.801 76.872C116.588 76.6373 116.481 76.3067 116.481 75.88V55.528C116.481 55.1013 116.588 54.7813 116.801 54.568C117.014 54.3333 117.334 54.216 117.761 54.216C118.166 54.216 118.486 54.3333 118.721 54.568C118.956 54.7813 119.073 55.1013 119.073 55.528V64.904H118.657C119.105 63.6667 119.83 62.7387 120.833 62.12C121.857 61.48 123.03 61.16 124.353 61.16C125.59 61.16 126.614 61.384 127.425 61.832C128.257 62.28 128.876 62.9627 129.281 63.88C129.686 64.776 129.889 65.9173 129.889 67.304V75.88C129.889 76.3067 129.772 76.6373 129.537 76.872C129.324 77.1067 129.014 77.224 128.609 77.224C128.182 77.224 127.852 77.1067 127.617 76.872C127.404 76.6373 127.297 76.3067 127.297 75.88V67.464C127.297 66.0133 127.009 64.9573 126.433 64.296C125.878 63.6133 124.982 63.272 123.745 63.272C122.316 63.272 121.174 63.72 120.321 64.616C119.489 65.4907 119.073 66.664 119.073 68.136V75.88C119.073 76.776 118.636 77.224 117.761 77.224ZM144.582 77.224C144.156 77.224 143.825 77.1067 143.59 76.872C143.377 76.616 143.27 76.2747 143.27 75.848V55.592C143.27 55.144 143.377 54.8027 143.59 54.568C143.825 54.3333 144.156 54.216 144.582 54.216C145.009 54.216 145.329 54.3333 145.542 54.568C145.777 54.8027 145.894 55.144 145.894 55.592V64.424H159.43V55.592C159.43 55.144 159.537 54.8027 159.75 54.568C159.985 54.3333 160.316 54.216 160.742 54.216C161.169 54.216 161.489 54.3333 161.702 54.568C161.937 54.8027 162.054 55.144 162.054 55.592V75.848C162.054 76.2747 161.937 76.616 161.702 76.872C161.489 77.1067 161.169 77.224 160.742 77.224C160.316 77.224 159.985 77.1067 159.75 76.872C159.537 76.616 159.43 76.2747 159.43 75.848V66.696H145.894V75.848C145.894 76.2747 145.788 76.616 145.574 76.872C145.361 77.1067 145.03 77.224 144.582 77.224ZM172.766 77.288C171.507 77.288 170.462 77.064 169.63 76.616C168.819 76.1467 168.201 75.4533 167.774 74.536C167.369 73.6187 167.166 72.4773 167.166 71.112V62.536C167.166 62.088 167.273 61.7573 167.486 61.544C167.721 61.3307 168.041 61.224 168.446 61.224C168.873 61.224 169.193 61.3307 169.406 61.544C169.641 61.7573 169.758 62.088 169.758 62.536V71.08C169.758 72.4453 170.035 73.4693 170.59 74.152C171.166 74.8133 172.062 75.144 173.278 75.144C174.601 75.144 175.678 74.696 176.51 73.8C177.342 72.904 177.758 71.7307 177.758 70.28V62.536C177.758 62.088 177.865 61.7573 178.078 61.544C178.313 61.3307 178.643 61.224 179.07 61.224C179.475 61.224 179.785 61.3307 179.998 61.544C180.233 61.7573 180.35 62.088 180.35 62.536V75.88C180.35 76.776 179.934 77.224 179.102 77.224C178.697 77.224 178.377 77.1067 178.142 76.872C177.929 76.6373 177.822 76.3067 177.822 75.88V72.968L178.238 73.416C177.811 74.6747 177.107 75.6347 176.126 76.296C175.166 76.9573 174.046 77.288 172.766 77.288ZM193.072 77.288C191.664 77.288 190.448 76.9253 189.424 76.2C188.421 75.4747 187.749 74.504 187.408 73.288L187.76 72.936V75.88C187.76 76.3067 187.642 76.6373 187.408 76.872C187.194 77.1067 186.885 77.224 186.48 77.224C186.053 77.224 185.733 77.1067 185.52 76.872C185.306 76.6373 185.2 76.3067 185.2 75.88V55.528C185.2 55.1013 185.306 54.7813 185.52 54.568C185.733 54.3333 186.053 54.216 186.48 54.216C186.885 54.216 187.205 54.3333 187.44 54.568C187.674 54.7813 187.792 55.1013 187.792 55.528V65.064H187.408C187.77 63.8693 188.453 62.92 189.456 62.216C190.458 61.512 191.664 61.16 193.072 61.16C194.48 61.16 195.696 61.4907 196.72 62.152C197.744 62.792 198.533 63.72 199.088 64.936C199.664 66.1307 199.952 67.56 199.952 69.224C199.952 70.8667 199.664 72.296 199.088 73.512C198.533 74.7067 197.733 75.6347 196.688 76.296C195.664 76.9573 194.458 77.288 193.072 77.288ZM192.528 75.208C193.509 75.208 194.352 74.9733 195.056 74.504C195.781 74.0347 196.336 73.352 196.72 72.456C197.125 71.56 197.328 70.4827 197.328 69.224C197.328 67.2827 196.89 65.8 196.016 64.776C195.162 63.752 194 63.24 192.528 63.24C191.568 63.24 190.725 63.4747 190 63.944C189.274 64.392 188.709 65.064 188.304 65.96C187.92 66.8347 187.728 67.9227 187.728 69.224C187.728 71.144 188.165 72.6267 189.04 73.672C189.914 74.696 191.077 75.208 192.528 75.208Z" fill="white"/>
<path d="M280.567 21L273.128 49" stroke="white" stroke-width="2.18" stroke-linecap="round" stroke-linejoin="round"/>
<path d="M265.688 26.6L258.249 34.44L265.688 42.28" stroke="white" stroke-width="2.18" stroke-linecap="round" stroke-linejoin="round"/>
<path d="M289.069 26.6L296.508 34.44L289.069 42.28" stroke="white" stroke-width="2.18" stroke-linecap="round" stroke-linejoin="round"/>
<rect width="299.865" height="95" transform="translate(0.13504)" fill="#121214"/>
<path d="M242.955 56.0126L245.984 62.4701C245.984 62.4701 259.614 65.3373 259.614 72.1567C259.614 77 253.556 77 253.556 77H237.402L229.451 72.625" stroke="white" stroke-width="2.17989" stroke-linecap="round" stroke-linejoin="round"/>
<path d="M224.782 56.0126L221.753 62.4701C221.753 62.4701 208.122 65.3373 208.122 72.1567C208.122 77 214.18 77 214.18 77H221.5L229.451 72.625L239.169 66.5" stroke="white" stroke-width="2.17989" stroke-linecap="round" stroke-linejoin="round"/>
<path d="M202.064 59.2413C202.064 59.2413 209.637 57.6271 214.18 56.0126C218.723 33.4108 232.354 35.0252 233.868 35.0252C235.383 35.0252 249.013 33.4108 253.556 56.0126C258.1 57.6271 265.672 59.2413 265.672 59.2413" stroke="white" stroke-width="2.17989" stroke-linecap="round" stroke-linejoin="round"/>
<path d="M233.868 28C237.772 28 240.936 24.866 240.936 21C240.936 17.134 237.772 14 233.868 14C229.965 14 226.801 17.134 226.801 21C226.801 24.866 229.965 28 233.868 28Z" stroke="white" stroke-width="2.17989" stroke-linecap="round" stroke-linejoin="round"/>
<path d="M5.05893 77.224C4.67493 77.224 4.37626 77.1173 4.16293 76.904C3.94959 76.6693 3.84293 76.3493 3.84293 75.944V55.496C3.84293 55.0693 3.94959 54.7493 4.16293 54.536C4.37626 54.3227 4.67493 54.216 5.05893 54.216C5.40026 54.216 5.66693 54.2907 5.85893 54.44C6.07226 54.568 6.26426 54.792 6.43493 55.112L15.2029 71.624H14.2429L22.9789 55.112C23.1496 54.792 23.3309 54.568 23.5229 54.44C23.7149 54.2907 23.9923 54.216 24.3549 54.216C24.7176 54.216 25.0056 54.3227 25.2189 54.536C25.4323 54.7493 25.5389 55.0693 25.5389 55.496V75.944C25.5389 76.3493 25.4323 76.6693 25.2189 76.904C25.0269 77.1173 24.7283 77.224 24.3229 77.224C23.9389 77.224 23.6403 77.1173 23.4269 76.904C23.2136 76.6693 23.1069 76.3493 23.1069 75.944V57.96H23.8749L15.8749 72.968C15.7256 73.2453 15.5656 73.448 15.3949 73.576C15.2456 73.6827 15.0216 73.736 14.7229 73.736C14.4243 73.736 14.1896 73.672 14.0189 73.544C13.8483 73.416 13.6989 73.224 13.5709 72.968L5.47493 57.928H6.24293V75.944C6.24293 76.3493 6.13626 76.6693 5.92293 76.904C5.73093 77.1173 5.44293 77.224 5.05893 77.224Z" fill="white"/>
<path d="M34.2579 82.984C33.9379 82.984 33.6819 82.8987 33.4899 82.728C33.2979 82.5573 33.1806 82.3227 33.1379 82.024C33.1166 81.7467 33.1699 81.4587 33.2979 81.16L35.5059 76.2V77.32L29.3619 63.048C29.2339 62.728 29.1913 62.4293 29.2339 62.152C29.2766 61.8747 29.4046 61.6507 29.6179 61.48C29.8313 61.3093 30.1299 61.224 30.5139 61.224C30.8553 61.224 31.1219 61.2987 31.3139 61.448C31.5059 61.5973 31.6766 61.864 31.8259 62.248L37.0739 75.112H36.2099L41.5219 62.248C41.6926 61.864 41.8739 61.5973 42.0659 61.448C42.2579 61.2987 42.5353 61.224 42.8979 61.224C43.2393 61.224 43.4953 61.3093 43.6659 61.48C43.8579 61.6507 43.9646 61.8747 43.9859 62.152C44.0286 62.408 43.9859 62.696 43.8579 63.016L35.6659 81.96C35.4953 82.344 35.3033 82.6107 35.0899 82.76C34.8979 82.9093 34.6206 82.984 34.2579 82.984Z" fill="white"/>
<path d="M62.6894 77.224C62.2841 77.224 61.9641 77.1067 61.7294 76.872C61.4948 76.616 61.3774 76.2747 61.3774 75.848V56.712H54.1774C53.7934 56.712 53.4948 56.6053 53.2814 56.392C53.0681 56.1787 52.9614 55.9013 52.9614 55.56C52.9614 55.1973 53.0681 54.92 53.2814 54.728C53.4948 54.536 53.7934 54.44 54.1774 54.44H71.2334C71.6174 54.44 71.9161 54.536 72.1294 54.728C72.3428 54.92 72.4494 55.1973 72.4494 55.56C72.4494 55.9227 72.3428 56.2107 72.1294 56.424C71.9161 56.616 71.6174 56.712 71.2334 56.712H64.0334V75.848C64.0334 76.2747 63.9161 76.616 63.6814 76.872C63.4681 77.1067 63.1374 77.224 62.6894 77.224Z" fill="white"/>
<path d="M79.3099 77.288C77.6673 77.288 76.2486 76.968 75.0539 76.328C73.8806 75.6667 72.9633 74.7387 72.3019 73.544C71.6619 72.3493 71.3419 70.92 71.3419 69.256C71.3419 67.6347 71.6619 66.2267 72.3019 65.032C72.9419 63.816 73.8166 62.8667 74.9259 62.184C76.0566 61.5013 77.3579 61.16 78.8299 61.16C79.8753 61.16 80.8139 61.3413 81.6459 61.704C82.4779 62.0453 83.1819 62.5467 83.7579 63.208C84.3553 63.8693 84.8033 64.6693 85.1019 65.608C85.4219 66.5467 85.5819 67.6027 85.5819 68.776C85.5819 69.1173 85.4859 69.3733 85.2939 69.544C85.1019 69.6933 84.8246 69.768 84.4619 69.768H73.3259V68.072H83.8539L83.3419 68.488C83.3419 67.336 83.1713 66.3653 82.8299 65.576C82.4886 64.7653 81.9873 64.1467 81.3259 63.72C80.6859 63.2933 79.8753 63.08 78.8939 63.08C77.8059 63.08 76.8779 63.336 76.1099 63.848C75.3633 64.3387 74.7979 65.032 74.4139 65.928C74.0299 66.8027 73.8379 67.8267 73.8379 69V69.192C73.8379 71.1547 74.3073 72.648 75.2459 73.672C76.2059 74.696 77.5606 75.208 79.3099 75.208C80.0353 75.208 80.7499 75.112 81.4539 74.92C82.1793 74.728 82.8833 74.408 83.5659 73.96C83.8646 73.768 84.1313 73.6827 84.3659 73.704C84.6219 73.704 84.8246 73.7787 84.9739 73.928C85.1233 74.056 85.2193 74.2267 85.2619 74.44C85.3259 74.632 85.3046 74.8453 85.1979 75.08C85.1126 75.3147 84.9313 75.5173 84.6539 75.688C83.9499 76.2 83.1179 76.5947 82.1579 76.872C81.1979 77.1493 80.2486 77.288 79.3099 77.288Z" fill="white"/>
<path d="M95.9252 77.288C94.3678 77.288 93.0238 76.9467 91.8932 76.264C90.7625 75.5813 89.8878 74.632 89.2692 73.416C88.6718 72.1787 88.3732 70.7493 88.3732 69.128C88.3732 67.8907 88.5438 66.7813 88.8852 65.8C89.2265 64.8187 89.7278 63.9867 90.3892 63.304C91.0505 62.6 91.8398 62.0667 92.7572 61.704C93.6958 61.3413 94.7518 61.16 95.9252 61.16C96.6932 61.16 97.4932 61.2773 98.3252 61.512C99.1572 61.7467 99.9145 62.152 100.597 62.728C100.811 62.8773 100.949 63.0587 101.013 63.272C101.077 63.4853 101.077 63.6987 101.013 63.912C100.949 64.104 100.843 64.2747 100.693 64.424C100.544 64.552 100.352 64.6267 100.117 64.648C99.9038 64.6693 99.6798 64.5947 99.4452 64.424C98.8905 63.9973 98.3252 63.6987 97.7492 63.528C97.1732 63.3573 96.6185 63.272 96.0852 63.272C95.2532 63.272 94.5278 63.4107 93.9092 63.688C93.2905 63.944 92.7678 64.3173 92.3412 64.808C91.9145 65.2987 91.5838 65.9067 91.3492 66.632C91.1358 67.3573 91.0292 68.2 91.0292 69.16C91.0292 71.016 91.4665 72.488 92.3412 73.576C93.2158 74.6427 94.4638 75.176 96.0852 75.176C96.6185 75.176 97.1625 75.0907 97.7172 74.92C98.2932 74.7493 98.8692 74.4507 99.4452 74.024C99.6798 73.8533 99.9038 73.7787 100.117 73.8C100.331 73.8213 100.512 73.9067 100.661 74.056C100.811 74.184 100.907 74.3547 100.949 74.568C101.013 74.7813 101.013 74.9947 100.949 75.208C100.885 75.4 100.747 75.5707 100.533 75.72C99.8505 76.2747 99.1038 76.68 98.2932 76.936C97.4825 77.1707 96.6932 77.288 95.9252 77.288Z" fill="white"/>
<path d="M105.426 77.224C104.999 77.224 104.679 77.1067 104.466 76.872C104.252 76.6373 104.146 76.3067 104.146 75.88V55.528C104.146 55.1013 104.252 54.7813 104.466 54.568C104.679 54.3333 104.999 54.216 105.426 54.216C105.831 54.216 106.151 54.3333 106.386 54.568C106.62 54.7813 106.738 55.1013 106.738 55.528V64.904H106.322C106.77 63.6667 107.495 62.7387 108.498 62.12C109.522 61.48 110.695 61.16 112.018 61.16C113.255 61.16 114.279 61.384 115.09 61.832C115.922 62.28 116.54 62.9627 116.946 63.88C117.351 64.776 117.554 65.9173 117.554 67.304V75.88C117.554 76.3067 117.436 76.6373 117.202 76.872C116.988 77.1067 116.679 77.224 116.274 77.224C115.847 77.224 115.516 77.1067 115.282 76.872C115.068 76.6373 114.962 76.3067 114.962 75.88V67.464C114.962 66.0133 114.674 64.9573 114.098 64.296C113.543 63.6133 112.647 63.272 111.41 63.272C109.98 63.272 108.839 63.72 107.986 64.616C107.154 65.4907 106.738 66.664 106.738 68.136V75.88C106.738 76.776 106.3 77.224 105.426 77.224Z" fill="white"/>
<path d="M132.247 77.224C131.821 77.224 131.49 77.1067 131.255 76.872C131.042 76.616 130.935 76.2747 130.935 75.848V55.592C130.935 55.144 131.042 54.8027 131.255 54.568C131.49 54.3333 131.821 54.216 132.247 54.216C132.674 54.216 132.994 54.3333 133.207 54.568C133.442 54.8027 133.559 55.144 133.559 55.592V64.424H147.095V55.592C147.095 55.144 147.202 54.8027 147.415 54.568C147.65 54.3333 147.981 54.216 148.407 54.216C148.834 54.216 149.154 54.3333 149.367 54.568C149.602 54.8027 149.719 55.144 149.719 55.592V75.848C149.719 76.2747 149.602 76.616 149.367 76.872C149.154 77.1067 148.834 77.224 148.407 77.224C147.981 77.224 147.65 77.1067 147.415 76.872C147.202 76.616 147.095 76.2747 147.095 75.848V66.696H133.559V75.848C133.559 76.2747 133.453 76.616 133.239 76.872C133.026 77.1067 132.695 77.224 132.247 77.224Z" fill="white"/>
<path d="M160.431 77.288C159.172 77.288 158.127 77.064 157.295 76.616C156.484 76.1467 155.866 75.4533 155.439 74.536C155.034 73.6187 154.831 72.4773 154.831 71.112V62.536C154.831 62.088 154.938 61.7573 155.151 61.544C155.386 61.3307 155.706 61.224 156.111 61.224C156.538 61.224 156.858 61.3307 157.071 61.544C157.306 61.7573 157.423 62.088 157.423 62.536V71.08C157.423 72.4453 157.7 73.4693 158.255 74.152C158.831 74.8133 159.727 75.144 160.943 75.144C162.266 75.144 163.343 74.696 164.175 73.8C165.007 72.904 165.423 71.7307 165.423 70.28V62.536C165.423 62.088 165.53 61.7573 165.743 61.544C165.978 61.3307 166.308 61.224 166.735 61.224C167.14 61.224 167.45 61.3307 167.663 61.544C167.898 61.7573 168.015 62.088 168.015 62.536V75.88C168.015 76.776 167.599 77.224 166.767 77.224C166.362 77.224 166.042 77.1067 165.807 76.872C165.594 76.6373 165.487 76.3067 165.487 75.88V72.968L165.903 73.416C165.476 74.6747 164.772 75.6347 163.791 76.296C162.831 76.9573 161.711 77.288 160.431 77.288Z" fill="white"/>
<path d="M180.736 77.288C179.328 77.288 178.112 76.9253 177.088 76.2C176.086 75.4747 175.414 74.504 175.072 73.288L175.424 72.936V75.88C175.424 76.3067 175.307 76.6373 175.072 76.872C174.859 77.1067 174.55 77.224 174.144 77.224C173.718 77.224 173.398 77.1067 173.184 76.872C172.971 76.6373 172.864 76.3067 172.864 75.88V55.528C172.864 55.1013 172.971 54.7813 173.184 54.568C173.398 54.3333 173.718 54.216 174.144 54.216C174.55 54.216 174.87 54.3333 175.104 54.568C175.339 54.7813 175.456 55.1013 175.456 55.528V65.064H175.072C175.435 63.8693 176.118 62.92 177.12 62.216C178.123 61.512 179.328 61.16 180.736 61.16C182.144 61.16 183.36 61.4907 184.384 62.152C185.408 62.792 186.198 63.72 186.752 64.936C187.328 66.1307 187.616 67.56 187.616 69.224C187.616 70.8667 187.328 72.296 186.752 73.512C186.198 74.7067 185.398 75.6347 184.352 76.296C183.328 76.9573 182.123 77.288 180.736 77.288ZM180.192 75.208C181.174 75.208 182.016 74.9733 182.72 74.504C183.446 74.0347 184 73.352 184.384 72.456C184.79 71.56 184.992 70.4827 184.992 69.224C184.992 67.2827 184.555 65.8 183.68 64.776C182.827 63.752 181.664 63.24 180.192 63.24C179.232 63.24 178.39 63.4747 177.664 63.944C176.939 64.392 176.374 65.064 175.968 65.96C175.584 66.8347 175.392 67.9227 175.392 69.224C175.392 71.144 175.83 72.6267 176.704 73.672C177.579 74.696 178.742 75.208 180.192 75.208Z" fill="white"/>
<path d="M279.322 21L271.407 49" stroke="white" stroke-width="2.18" stroke-linecap="round" stroke-linejoin="round"/>
<path d="M263.491 26.6L255.576 34.44L263.491 42.28" stroke="white" stroke-width="2.18" stroke-linecap="round" stroke-linejoin="round"/>
<path d="M288.369 26.6L296.284 34.44L288.369 42.28" stroke="white" stroke-width="2.18" stroke-linecap="round" stroke-linejoin="round"/>
<path d="M196.25 49H195.083C193.795 49 192.75 47.9566 192.75 46.6679C192.75 44.8585 192.75 42.4017 192.75 40.8333C192.75 39.6667 191 38.5 191 38.5C191 38.5 192.75 37.3333 192.75 36.1667C192.75 34.7982 192.75 32.2257 192.75 30.3323C192.75 29.0437 193.795 28 195.083 28H196.25" stroke="white" stroke-width="2.18" stroke-linecap="round" stroke-linejoin="round"/>
<path d="M203.25 49H204.417C205.705 49 206.75 47.9566 206.75 46.6679C206.75 44.8585 206.75 42.4017 206.75 40.8333C206.75 39.6667 208.5 38.5 208.5 38.5C208.5 38.5 206.75 37.3333 206.75 36.1667C206.75 34.7982 206.75 32.2257 206.75 30.3323C206.75 29.0437 205.705 28 204.417 28H203.25" stroke="white" stroke-width="2.18" stroke-linecap="round" stroke-linejoin="round"/>
</svg>
