<svg width="300" height="95" viewBox="0 0 300 95" fill="none" xmlns="http://www.w3.org/2000/svg">
<rect width="299.865" height="95" transform="translate(0.13504)" fill="#121214"/>
<path d="M242.955 56.0126L245.984 62.4701C245.984 62.4701 259.614 65.3373 259.614 72.1567C259.614 77 253.556 77 253.556 77H237.402L229.451 72.625" stroke="white" stroke-width="2.17989" stroke-linecap="round" stroke-linejoin="round"/>
<path d="M224.782 56.0126L221.753 62.4701C221.753 62.4701 208.122 65.3373 208.122 72.1567C208.122 77 214.18 77 214.18 77H221.5L229.451 72.625L239.169 66.5" stroke="white" stroke-width="2.17989" stroke-linecap="round" stroke-linejoin="round"/>
<path d="M202.064 59.2413C202.064 59.2413 209.637 57.6271 214.18 56.0126C218.723 33.4108 232.354 35.0252 233.868 35.0252C235.383 35.0252 249.013 33.4108 253.556 56.0126C258.1 57.6271 265.672 59.2413 265.672 59.2413" stroke="white" stroke-width="2.17989" stroke-linecap="round" stroke-linejoin="round"/>
<path d="M233.868 28C237.772 28 240.936 24.866 240.936 21C240.936 17.134 237.772 14 233.868 14C229.965 14 226.801 17.134 226.801 21C226.801 24.866 229.965 28 233.868 28Z" stroke="white" stroke-width="2.17989" stroke-linecap="round" stroke-linejoin="round"/>
<path d="M5.05893 77.224C4.67493 77.224 4.37626 77.1173 4.16293 76.904C3.94959 76.6693 3.84293 76.3493 3.84293 75.944V55.496C3.84293 55.0693 3.94959 54.7493 4.16293 54.536C4.37626 54.3227 4.67493 54.216 5.05893 54.216C5.40026 54.216 5.66693 54.2907 5.85893 54.44C6.07226 54.568 6.26426 54.792 6.43493 55.112L15.2029 71.624H14.2429L22.9789 55.112C23.1496 54.792 23.3309 54.568 23.5229 54.44C23.7149 54.2907 23.9923 54.216 24.3549 54.216C24.7176 54.216 25.0056 54.3227 25.2189 54.536C25.4323 54.7493 25.5389 55.0693 25.5389 55.496V75.944C25.5389 76.3493 25.4323 76.6693 25.2189 76.904C25.0269 77.1173 24.7283 77.224 24.3229 77.224C23.9389 77.224 23.6403 77.1173 23.4269 76.904C23.2136 76.6693 23.1069 76.3493 23.1069 75.944V57.96H23.8749L15.8749 72.968C15.7256 73.2453 15.5656 73.448 15.3949 73.576C15.2456 73.6827 15.0216 73.736 14.7229 73.736C14.4243 73.736 14.1896 73.672 14.0189 73.544C13.8483 73.416 13.6989 73.224 13.5709 72.968L5.47493 57.928H6.24293V75.944C6.24293 76.3493 6.13626 76.6693 5.92293 76.904C5.73093 77.1173 5.44293 77.224 5.05893 77.224Z" fill="white"/>
<path d="M34.2579 82.984C33.9379 82.984 33.6819 82.8987 33.4899 82.728C33.2979 82.5573 33.1806 82.3227 33.1379 82.024C33.1166 81.7467 33.1699 81.4587 33.2979 81.16L35.5059 76.2V77.32L29.3619 63.048C29.2339 62.728 29.1913 62.4293 29.2339 62.152C29.2766 61.8747 29.4046 61.6507 29.6179 61.48C29.8313 61.3093 30.1299 61.224 30.5139 61.224C30.8553 61.224 31.1219 61.2987 31.3139 61.448C31.5059 61.5973 31.6766 61.864 31.8259 62.248L37.0739 75.112H36.2099L41.5219 62.248C41.6926 61.864 41.8739 61.5973 42.0659 61.448C42.2579 61.2987 42.5353 61.224 42.8979 61.224C43.2393 61.224 43.4953 61.3093 43.6659 61.48C43.8579 61.6507 43.9646 61.8747 43.9859 62.152C44.0286 62.408 43.9859 62.696 43.8579 63.016L35.6659 81.96C35.4953 82.344 35.3033 82.6107 35.0899 82.76C34.8979 82.9093 34.6206 82.984 34.2579 82.984Z" fill="white"/>
<path d="M62.6894 77.224C62.2841 77.224 61.9641 77.1067 61.7294 76.872C61.4948 76.616 61.3774 76.2747 61.3774 75.848V56.712H54.1774C53.7934 56.712 53.4948 56.6053 53.2814 56.392C53.0681 56.1787 52.9614 55.9013 52.9614 55.56C52.9614 55.1973 53.0681 54.92 53.2814 54.728C53.4948 54.536 53.7934 54.44 54.1774 54.44H71.2334C71.6174 54.44 71.9161 54.536 72.1294 54.728C72.3428 54.92 72.4494 55.1973 72.4494 55.56C72.4494 55.9227 72.3428 56.2107 72.1294 56.424C71.9161 56.616 71.6174 56.712 71.2334 56.712H64.0334V75.848C64.0334 76.2747 63.9161 76.616 63.6814 76.872C63.4681 77.1067 63.1374 77.224 62.6894 77.224Z" fill="white"/>
<path d="M79.3099 77.288C77.6673 77.288 76.2486 76.968 75.0539 76.328C73.8806 75.6667 72.9633 74.7387 72.3019 73.544C71.6619 72.3493 71.3419 70.92 71.3419 69.256C71.3419 67.6347 71.6619 66.2267 72.3019 65.032C72.9419 63.816 73.8166 62.8667 74.9259 62.184C76.0566 61.5013 77.3579 61.16 78.8299 61.16C79.8753 61.16 80.8139 61.3413 81.6459 61.704C82.4779 62.0453 83.1819 62.5467 83.7579 63.208C84.3553 63.8693 84.8033 64.6693 85.1019 65.608C85.4219 66.5467 85.5819 67.6027 85.5819 68.776C85.5819 69.1173 85.4859 69.3733 85.2939 69.544C85.1019 69.6933 84.8246 69.768 84.4619 69.768H73.3259V68.072H83.8539L83.3419 68.488C83.3419 67.336 83.1713 66.3653 82.8299 65.576C82.4886 64.7653 81.9873 64.1467 81.3259 63.72C80.6859 63.2933 79.8753 63.08 78.8939 63.08C77.8059 63.08 76.8779 63.336 76.1099 63.848C75.3633 64.3387 74.7979 65.032 74.4139 65.928C74.0299 66.8027 73.8379 67.8267 73.8379 69V69.192C73.8379 71.1547 74.3073 72.648 75.2459 73.672C76.2059 74.696 77.5606 75.208 79.3099 75.208C80.0353 75.208 80.7499 75.112 81.4539 74.92C82.1793 74.728 82.8833 74.408 83.5659 73.96C83.8646 73.768 84.1313 73.6827 84.3659 73.704C84.6219 73.704 84.8246 73.7787 84.9739 73.928C85.1233 74.056 85.2193 74.2267 85.2619 74.44C85.3259 74.632 85.3046 74.8453 85.1979 75.08C85.1126 75.3147 84.9313 75.5173 84.6539 75.688C83.9499 76.2 83.1179 76.5947 82.1579 76.872C81.1979 77.1493 80.2486 77.288 79.3099 77.288Z" fill="white"/>
<path d="M95.9252 77.288C94.3678 77.288 93.0238 76.9467 91.8932 76.264C90.7625 75.5813 89.8878 74.632 89.2692 73.416C88.6718 72.1787 88.3732 70.7493 88.3732 69.128C88.3732 67.8907 88.5438 66.7813 88.8852 65.8C89.2265 64.8187 89.7278 63.9867 90.3892 63.304C91.0505 62.6 91.8398 62.0667 92.7572 61.704C93.6958 61.3413 94.7518 61.16 95.9252 61.16C96.6932 61.16 97.4932 61.2773 98.3252 61.512C99.1572 61.7467 99.9145 62.152 100.597 62.728C100.811 62.8773 100.949 63.0587 101.013 63.272C101.077 63.4853 101.077 63.6987 101.013 63.912C100.949 64.104 100.843 64.2747 100.693 64.424C100.544 64.552 100.352 64.6267 100.117 64.648C99.9038 64.6693 99.6798 64.5947 99.4452 64.424C98.8905 63.9973 98.3252 63.6987 97.7492 63.528C97.1732 63.3573 96.6185 63.272 96.0852 63.272C95.2532 63.272 94.5278 63.4107 93.9092 63.688C93.2905 63.944 92.7678 64.3173 92.3412 64.808C91.9145 65.2987 91.5838 65.9067 91.3492 66.632C91.1358 67.3573 91.0292 68.2 91.0292 69.16C91.0292 71.016 91.4665 72.488 92.3412 73.576C93.2158 74.6427 94.4638 75.176 96.0852 75.176C96.6185 75.176 97.1625 75.0907 97.7172 74.92C98.2932 74.7493 98.8692 74.4507 99.4452 74.024C99.6798 73.8533 99.9038 73.7787 100.117 73.8C100.331 73.8213 100.512 73.9067 100.661 74.056C100.811 74.184 100.907 74.3547 100.949 74.568C101.013 74.7813 101.013 74.9947 100.949 75.208C100.885 75.4 100.747 75.5707 100.533 75.72C99.8505 76.2747 99.1038 76.68 98.2932 76.936C97.4825 77.1707 96.6932 77.288 95.9252 77.288Z" fill="white"/>
<path d="M105.426 77.224C104.999 77.224 104.679 77.1067 104.466 76.872C104.252 76.6373 104.146 76.3067 104.146 75.88V55.528C104.146 55.1013 104.252 54.7813 104.466 54.568C104.679 54.3333 104.999 54.216 105.426 54.216C105.831 54.216 106.151 54.3333 106.386 54.568C106.62 54.7813 106.738 55.1013 106.738 55.528V64.904H106.322C106.77 63.6667 107.495 62.7387 108.498 62.12C109.522 61.48 110.695 61.16 112.018 61.16C113.255 61.16 114.279 61.384 115.09 61.832C115.922 62.28 116.54 62.9627 116.946 63.88C117.351 64.776 117.554 65.9173 117.554 67.304V75.88C117.554 76.3067 117.436 76.6373 117.202 76.872C116.988 77.1067 116.679 77.224 116.274 77.224C115.847 77.224 115.516 77.1067 115.282 76.872C115.068 76.6373 114.962 76.3067 114.962 75.88V67.464C114.962 66.0133 114.674 64.9573 114.098 64.296C113.543 63.6133 112.647 63.272 111.41 63.272C109.98 63.272 108.839 63.72 107.986 64.616C107.154 65.4907 106.738 66.664 106.738 68.136V75.88C106.738 76.776 106.3 77.224 105.426 77.224Z" fill="white"/>
<path d="M132.247 77.224C131.821 77.224 131.49 77.1067 131.255 76.872C131.042 76.616 130.935 76.2747 130.935 75.848V55.592C130.935 55.144 131.042 54.8027 131.255 54.568C131.49 54.3333 131.821 54.216 132.247 54.216C132.674 54.216 132.994 54.3333 133.207 54.568C133.442 54.8027 133.559 55.144 133.559 55.592V64.424H147.095V55.592C147.095 55.144 147.202 54.8027 147.415 54.568C147.65 54.3333 147.981 54.216 148.407 54.216C148.834 54.216 149.154 54.3333 149.367 54.568C149.602 54.8027 149.719 55.144 149.719 55.592V75.848C149.719 76.2747 149.602 76.616 149.367 76.872C149.154 77.1067 148.834 77.224 148.407 77.224C147.981 77.224 147.65 77.1067 147.415 76.872C147.202 76.616 147.095 76.2747 147.095 75.848V66.696H133.559V75.848C133.559 76.2747 133.453 76.616 133.239 76.872C133.026 77.1067 132.695 77.224 132.247 77.224Z" fill="white"/>
<path d="M160.431 77.288C159.172 77.288 158.127 77.064 157.295 76.616C156.484 76.1467 155.866 75.4533 155.439 74.536C155.034 73.6187 154.831 72.4773 154.831 71.112V62.536C154.831 62.088 154.938 61.7573 155.151 61.544C155.386 61.3307 155.706 61.224 156.111 61.224C156.538 61.224 156.858 61.3307 157.071 61.544C157.306 61.7573 157.423 62.088 157.423 62.536V71.08C157.423 72.4453 157.7 73.4693 158.255 74.152C158.831 74.8133 159.727 75.144 160.943 75.144C162.266 75.144 163.343 74.696 164.175 73.8C165.007 72.904 165.423 71.7307 165.423 70.28V62.536C165.423 62.088 165.53 61.7573 165.743 61.544C165.978 61.3307 166.308 61.224 166.735 61.224C167.14 61.224 167.45 61.3307 167.663 61.544C167.898 61.7573 168.015 62.088 168.015 62.536V75.88C168.015 76.776 167.599 77.224 166.767 77.224C166.362 77.224 166.042 77.1067 165.807 76.872C165.594 76.6373 165.487 76.3067 165.487 75.88V72.968L165.903 73.416C165.476 74.6747 164.772 75.6347 163.791 76.296C162.831 76.9573 161.711 77.288 160.431 77.288Z" fill="white"/>
<path d="M180.736 77.288C179.328 77.288 178.112 76.9253 177.088 76.2C176.086 75.4747 175.414 74.504 175.072 73.288L175.424 72.936V75.88C175.424 76.3067 175.307 76.6373 175.072 76.872C174.859 77.1067 174.55 77.224 174.144 77.224C173.718 77.224 173.398 77.1067 173.184 76.872C172.971 76.6373 172.864 76.3067 172.864 75.88V55.528C172.864 55.1013 172.971 54.7813 173.184 54.568C173.398 54.3333 173.718 54.216 174.144 54.216C174.55 54.216 174.87 54.3333 175.104 54.568C175.339 54.7813 175.456 55.1013 175.456 55.528V65.064H175.072C175.435 63.8693 176.118 62.92 177.12 62.216C178.123 61.512 179.328 61.16 180.736 61.16C182.144 61.16 183.36 61.4907 184.384 62.152C185.408 62.792 186.198 63.72 186.752 64.936C187.328 66.1307 187.616 67.56 187.616 69.224C187.616 70.8667 187.328 72.296 186.752 73.512C186.198 74.7067 185.398 75.6347 184.352 76.296C183.328 76.9573 182.123 77.288 180.736 77.288ZM180.192 75.208C181.174 75.208 182.016 74.9733 182.72 74.504C183.446 74.0347 184 73.352 184.384 72.456C184.79 71.56 184.992 70.4827 184.992 69.224C184.992 67.2827 184.555 65.8 183.68 64.776C182.827 63.752 181.664 63.24 180.192 63.24C179.232 63.24 178.39 63.4747 177.664 63.944C176.939 64.392 176.374 65.064 175.968 65.96C175.584 66.8347 175.392 67.9227 175.392 69.224C175.392 71.144 175.83 72.6267 176.704 73.672C177.579 74.696 178.742 75.208 180.192 75.208Z" fill="white"/>
<path d="M279.322 21L271.407 49" stroke="white" stroke-width="2.18" stroke-linecap="round" stroke-linejoin="round"/>
<path d="M263.491 26.6L255.576 34.44L263.491 42.28" stroke="white" stroke-width="2.18" stroke-linecap="round" stroke-linejoin="round"/>
<path d="M288.369 26.6L296.284 34.44L288.369 42.28" stroke="white" stroke-width="2.18" stroke-linecap="round" stroke-linejoin="round"/>
</svg>
